<svg width="40" height="40" viewBox="0 0 40 40" fill="none" xmlns="http://www.w3.org/2000/svg">
<rect width="40" height="40" rx="10" fill="#3D518C"/>
<path d="M20 40C31.0457 40 40 31.0457 40 20C40 8.9543 31.0457 0 20 0C8.9543 0 0 8.9543 0 20C0 31.0457 8.9543 40 20 40Z" fill="#3D518C"/>
<path d="M12.6873 12.705H27.9233C29.4364 12.705 30.663 13.9316 30.663 15.4447V22.7968C30.663 24.3099 29.4364 25.5365 27.9233 25.5365H17.2834C15.9571 25.5365 14.8213 24.5865 14.5868 23.2811L12.6873 12.705ZM12.6873 12.705L11.9236 10.464C11.8291 10.1865 11.5684 10 11.2753 10H9" stroke="white" stroke-linecap="round"/>
<path d="M18.7725 29.2856H18.7839" stroke="white" stroke-linecap="round"/>
<path d="M27.2256 29.2856H27.237" stroke="white" stroke-linecap="round"/>
</svg>
