<svg width="24" height="25" viewBox="0 0 24 25" fill="none" xmlns="http://www.w3.org/2000/svg">
<path d="M20.5248 4.55879C20.1482 4.24394 19.6307 4.16292 19.1771 4.3478L3.81963 10.599C3.14407 10.8793 2.82185 11.6587 3.09991 12.3398C3.24373 12.6921 3.53 12.9654 3.88659 13.0911L7.19966 14.2524L8.99515 20.2377C8.99876 20.2499 9.00985 20.2573 9.01451 20.2691C9.03308 20.3168 9.06023 20.3607 9.0945 20.3986C9.10727 20.4138 9.12118 20.4281 9.13604 20.4413C9.18077 20.4788 9.23272 20.5065 9.28859 20.5226C9.29712 20.5251 9.30282 20.5328 9.31151 20.5348L9.31653 20.5346L9.31904 20.5356C9.34766 20.5421 9.37685 20.5452 9.4061 20.5449C9.44434 20.5435 9.48227 20.5369 9.51868 20.5251C9.52574 20.5232 9.53286 20.5237 9.53976 20.5214C9.60197 20.4993 9.65816 20.463 9.70393 20.4152C9.70927 20.4098 9.71738 20.4088 9.7225 20.4031L12.3057 17.5295L16.0741 20.4715C16.3031 20.652 16.5854 20.7501 16.876 20.75C17.5046 20.7499 18.0473 20.3059 18.1768 19.6858L20.9734 5.84328C21.0703 5.36445 20.8979 4.87073 20.5248 4.55879ZM9.93266 15.3875L9.32647 18.3576L8.0623 14.1422L14.3322 10.8504L10.049 15.1689C9.98979 15.2287 9.94935 15.3047 9.93266 15.3875ZM17.3373 19.5119C17.3044 19.671 17.1918 19.8015 17.0401 19.8563C16.8919 19.9137 16.7244 19.8881 16.5998 19.7887L12.5167 16.6011C12.3399 16.4631 12.0876 16.4856 11.9374 16.6526L10.1411 18.6508L10.7463 15.6888L16.9079 9.47565C17.0753 9.30712 17.0756 9.03368 16.9084 8.86489C16.7762 8.73129 16.5733 8.69974 16.4073 8.78699L7.52439 13.4508L4.167 12.2742C3.984 12.2135 3.85954 12.0422 3.85729 11.848C3.84845 11.6524 3.96329 11.4726 4.14357 11.3999L19.4986 5.14955C19.659 5.08093 19.844 5.10968 19.9765 5.22382C20.1084 5.33111 20.1689 5.50417 20.133 5.67112L17.3373 19.5119Z" fill="#3D518C"/>
</svg>
