<svg width="24" height="25" viewBox="0 0 24 25" fill="none" xmlns="http://www.w3.org/2000/svg">
<path d="M0.5 7H4.5C4.5 7 6.81 13 9 13C9.41 13 9.5 12.25 9.5 10C9.5 7.75 8.91 7 8.5 7C8.5 6.59 9.28 6 11.5 6C13.72 6 13.5 6.06 13.5 7V11C13.5 12.16 13.88 13 14.5 13C15.12 13 18.72 8.56 19 7H23.5C23.5 7.53 19.5 13.06 19.5 13.5C19.5 13.94 23.5 18 23.5 18.5C23.5 19 22.63 19 21.5 19H19C18.41 19 15.84 16 14.5 16C13.16 16 14.22 19 13 19H11C7.28 19 1 9.91 0.5 7Z" stroke="#3D518C" stroke-linecap="round" stroke-linejoin="round"/>
</svg>
